<mxfile host="app.diagrams.net" agent="Mozilla/5.0 (X11; Linux x86_64) AppleWebKit/537.36 (KHTML, like Gecko) Chrome/134.0.0.0 Safari/537.36" version="26.2.3">
  <diagram name="Page-1" id="YAIqiwu9c-0_AlO4QUCi">
    <mxGraphModel dx="2783" dy="3415" grid="1" gridSize="10" guides="1" tooltips="1" connect="1" arrows="1" fold="1" page="1" pageScale="1" pageWidth="850" pageHeight="1100" math="0" shadow="0">
      <root>
        <mxCell id="0" />
        <mxCell id="1" parent="0" />
        <mxCell id="2Gc3yTS-ioxZ1aIdltnf-1" value="" style="ellipse;html=1;shape=startState;fillColor=#000000;strokeColor=#ff0000;" vertex="1" parent="1">
          <mxGeometry x="325" y="-2160" width="30" height="30" as="geometry" />
        </mxCell>
        <mxCell id="2Gc3yTS-ioxZ1aIdltnf-2" value="" style="edgeStyle=orthogonalEdgeStyle;html=1;verticalAlign=bottom;endArrow=open;endSize=8;strokeColor=#ff0000;rounded=0;" edge="1" source="2Gc3yTS-ioxZ1aIdltnf-1" parent="1" target="2Gc3yTS-ioxZ1aIdltnf-3">
          <mxGeometry relative="1" as="geometry">
            <mxPoint x="340" y="-2070" as="targetPoint" />
          </mxGeometry>
        </mxCell>
        <mxCell id="2Gc3yTS-ioxZ1aIdltnf-3" value="Mở form quản lý giao&lt;br&gt;dịch" style="rounded=1;whiteSpace=wrap;html=1;arcSize=40;fontColor=#000000;fillColor=#ffffc0;strokeColor=#ff0000;" vertex="1" parent="1">
          <mxGeometry x="495" y="-2165" width="120" height="40" as="geometry" />
        </mxCell>
        <mxCell id="2Gc3yTS-ioxZ1aIdltnf-4" value="" style="edgeStyle=orthogonalEdgeStyle;html=1;verticalAlign=bottom;endArrow=open;endSize=8;strokeColor=#ff0000;rounded=0;" edge="1" source="2Gc3yTS-ioxZ1aIdltnf-3" parent="1" target="2Gc3yTS-ioxZ1aIdltnf-5">
          <mxGeometry relative="1" as="geometry">
            <mxPoint x="555" y="-2050" as="targetPoint" />
          </mxGeometry>
        </mxCell>
        <mxCell id="2Gc3yTS-ioxZ1aIdltnf-5" value="" style="shape=line;html=1;strokeWidth=6;strokeColor=#ff0000;" vertex="1" parent="1">
          <mxGeometry x="455" y="-2040" width="200" height="10" as="geometry" />
        </mxCell>
        <mxCell id="2Gc3yTS-ioxZ1aIdltnf-6" value="" style="edgeStyle=orthogonalEdgeStyle;html=1;verticalAlign=bottom;endArrow=open;endSize=8;strokeColor=#ff0000;rounded=0;" edge="1" source="2Gc3yTS-ioxZ1aIdltnf-5" parent="1" target="2Gc3yTS-ioxZ1aIdltnf-7">
          <mxGeometry relative="1" as="geometry">
            <mxPoint x="555" y="-1960" as="targetPoint" />
          </mxGeometry>
        </mxCell>
        <mxCell id="2Gc3yTS-ioxZ1aIdltnf-7" value="Thêm giao dịch" style="rounded=1;whiteSpace=wrap;html=1;arcSize=40;fontColor=#000000;fillColor=#ffffc0;strokeColor=#ff0000;" vertex="1" parent="1">
          <mxGeometry x="280" y="-1950" width="120" height="40" as="geometry" />
        </mxCell>
        <mxCell id="2Gc3yTS-ioxZ1aIdltnf-8" value="" style="edgeStyle=orthogonalEdgeStyle;html=1;verticalAlign=bottom;endArrow=open;endSize=8;strokeColor=#ff0000;rounded=0;" edge="1" source="2Gc3yTS-ioxZ1aIdltnf-7" parent="1" target="2Gc3yTS-ioxZ1aIdltnf-20">
          <mxGeometry relative="1" as="geometry">
            <mxPoint x="340" y="-1810" as="targetPoint" />
          </mxGeometry>
        </mxCell>
        <mxCell id="2Gc3yTS-ioxZ1aIdltnf-9" value="Sửa giao dịch" style="rounded=1;whiteSpace=wrap;html=1;arcSize=40;fontColor=#000000;fillColor=#ffffc0;strokeColor=#ff0000;" vertex="1" parent="1">
          <mxGeometry x="495" y="-1950" width="120" height="40" as="geometry" />
        </mxCell>
        <mxCell id="2Gc3yTS-ioxZ1aIdltnf-10" value="" style="edgeStyle=orthogonalEdgeStyle;html=1;verticalAlign=bottom;endArrow=open;endSize=8;strokeColor=#ff0000;rounded=0;" edge="1" source="2Gc3yTS-ioxZ1aIdltnf-9" parent="1" target="2Gc3yTS-ioxZ1aIdltnf-18">
          <mxGeometry relative="1" as="geometry">
            <mxPoint x="555" y="-1810" as="targetPoint" />
            <Array as="points">
              <mxPoint x="565" y="-1745" />
            </Array>
          </mxGeometry>
        </mxCell>
        <mxCell id="2Gc3yTS-ioxZ1aIdltnf-11" value="Tra cứu giao dịch" style="rounded=1;whiteSpace=wrap;html=1;arcSize=40;fontColor=#000000;fillColor=#ffffc0;strokeColor=#ff0000;" vertex="1" parent="1">
          <mxGeometry x="685" y="-1950" width="120" height="40" as="geometry" />
        </mxCell>
        <mxCell id="2Gc3yTS-ioxZ1aIdltnf-12" value="" style="edgeStyle=orthogonalEdgeStyle;html=1;verticalAlign=bottom;endArrow=open;endSize=8;strokeColor=#ff0000;rounded=0;" edge="1" source="2Gc3yTS-ioxZ1aIdltnf-11" parent="1" target="2Gc3yTS-ioxZ1aIdltnf-18">
          <mxGeometry relative="1" as="geometry">
            <mxPoint x="745" y="-1850" as="targetPoint" />
          </mxGeometry>
        </mxCell>
        <mxCell id="2Gc3yTS-ioxZ1aIdltnf-13" value="" style="edgeStyle=orthogonalEdgeStyle;html=1;verticalAlign=bottom;endArrow=open;endSize=8;strokeColor=#ff0000;rounded=0;" edge="1" parent="1" source="2Gc3yTS-ioxZ1aIdltnf-5" target="2Gc3yTS-ioxZ1aIdltnf-9">
          <mxGeometry relative="1" as="geometry">
            <mxPoint x="350" y="-1940" as="targetPoint" />
            <mxPoint x="465" y="-2025" as="sourcePoint" />
          </mxGeometry>
        </mxCell>
        <mxCell id="2Gc3yTS-ioxZ1aIdltnf-14" value="Xóa giao dịch" style="rounded=1;whiteSpace=wrap;html=1;arcSize=40;fontColor=#000000;fillColor=#ffffc0;strokeColor=#ff0000;" vertex="1" parent="1">
          <mxGeometry x="875" y="-1950" width="120" height="40" as="geometry" />
        </mxCell>
        <mxCell id="2Gc3yTS-ioxZ1aIdltnf-15" value="" style="edgeStyle=orthogonalEdgeStyle;html=1;verticalAlign=bottom;endArrow=open;endSize=8;strokeColor=#ff0000;rounded=0;" edge="1" source="2Gc3yTS-ioxZ1aIdltnf-14" parent="1" target="2Gc3yTS-ioxZ1aIdltnf-18">
          <mxGeometry relative="1" as="geometry">
            <mxPoint x="935" y="-1850" as="targetPoint" />
            <Array as="points">
              <mxPoint x="935" y="-1745" />
            </Array>
          </mxGeometry>
        </mxCell>
        <mxCell id="2Gc3yTS-ioxZ1aIdltnf-16" value="" style="edgeStyle=orthogonalEdgeStyle;html=1;verticalAlign=bottom;endArrow=open;endSize=8;strokeColor=#ff0000;rounded=0;" edge="1" parent="1" source="2Gc3yTS-ioxZ1aIdltnf-5" target="2Gc3yTS-ioxZ1aIdltnf-11">
          <mxGeometry relative="1" as="geometry">
            <mxPoint x="565" y="-1940" as="targetPoint" />
            <mxPoint x="565" y="-2020" as="sourcePoint" />
          </mxGeometry>
        </mxCell>
        <mxCell id="2Gc3yTS-ioxZ1aIdltnf-17" value="" style="edgeStyle=orthogonalEdgeStyle;html=1;verticalAlign=bottom;endArrow=open;endSize=8;strokeColor=#ff0000;rounded=0;" edge="1" parent="1" source="2Gc3yTS-ioxZ1aIdltnf-5" target="2Gc3yTS-ioxZ1aIdltnf-14">
          <mxGeometry relative="1" as="geometry">
            <mxPoint x="755" y="-1940" as="targetPoint" />
            <mxPoint x="665" y="-2025" as="sourcePoint" />
          </mxGeometry>
        </mxCell>
        <mxCell id="2Gc3yTS-ioxZ1aIdltnf-18" value="" style="shape=line;html=1;strokeWidth=6;strokeColor=#ff0000;" vertex="1" parent="1">
          <mxGeometry x="645" y="-1750" width="200" height="10" as="geometry" />
        </mxCell>
        <mxCell id="2Gc3yTS-ioxZ1aIdltnf-19" value="" style="edgeStyle=orthogonalEdgeStyle;html=1;verticalAlign=bottom;endArrow=open;endSize=8;strokeColor=#ff0000;rounded=0;" edge="1" source="2Gc3yTS-ioxZ1aIdltnf-18" parent="1" target="2Gc3yTS-ioxZ1aIdltnf-34">
          <mxGeometry relative="1" as="geometry">
            <mxPoint x="745" y="-1670" as="targetPoint" />
          </mxGeometry>
        </mxCell>
        <mxCell id="2Gc3yTS-ioxZ1aIdltnf-20" value="Nhập thông tin giao dịch" style="rounded=1;whiteSpace=wrap;html=1;arcSize=40;fontColor=#000000;fillColor=#ffffc0;strokeColor=#ff0000;" vertex="1" parent="1">
          <mxGeometry x="280" y="-1810" width="120" height="40" as="geometry" />
        </mxCell>
        <mxCell id="2Gc3yTS-ioxZ1aIdltnf-21" value="" style="edgeStyle=orthogonalEdgeStyle;html=1;verticalAlign=bottom;endArrow=open;endSize=8;strokeColor=#ff0000;rounded=0;" edge="1" source="2Gc3yTS-ioxZ1aIdltnf-20" parent="1" target="2Gc3yTS-ioxZ1aIdltnf-22">
          <mxGeometry relative="1" as="geometry">
            <mxPoint x="340" y="-1680" as="targetPoint" />
          </mxGeometry>
        </mxCell>
        <mxCell id="2Gc3yTS-ioxZ1aIdltnf-22" value="Kiểm tra thông tin giao dịch" style="rounded=1;whiteSpace=wrap;html=1;arcSize=40;fontColor=#000000;fillColor=#ffffc0;strokeColor=#ff0000;" vertex="1" parent="1">
          <mxGeometry x="280" y="-1700" width="120" height="40" as="geometry" />
        </mxCell>
        <mxCell id="2Gc3yTS-ioxZ1aIdltnf-23" value="" style="edgeStyle=orthogonalEdgeStyle;html=1;verticalAlign=bottom;endArrow=open;endSize=8;strokeColor=#ff0000;rounded=0;" edge="1" source="2Gc3yTS-ioxZ1aIdltnf-22" parent="1" target="2Gc3yTS-ioxZ1aIdltnf-28">
          <mxGeometry relative="1" as="geometry">
            <mxPoint x="340" y="-1610" as="targetPoint" />
          </mxGeometry>
        </mxCell>
        <mxCell id="2Gc3yTS-ioxZ1aIdltnf-24" value="" style="edgeStyle=orthogonalEdgeStyle;html=1;verticalAlign=bottom;endArrow=open;endSize=8;strokeColor=#ff0000;rounded=0;" edge="1" parent="1" source="2Gc3yTS-ioxZ1aIdltnf-22" target="2Gc3yTS-ioxZ1aIdltnf-20">
          <mxGeometry relative="1" as="geometry">
            <mxPoint x="240" y="-1800" as="targetPoint" />
            <mxPoint x="240" y="-1780" as="sourcePoint" />
            <Array as="points">
              <mxPoint x="230" y="-1680" />
              <mxPoint x="230" y="-1790" />
            </Array>
          </mxGeometry>
        </mxCell>
        <mxCell id="2Gc3yTS-ioxZ1aIdltnf-25" value="" style="ellipse;html=1;shape=endState;fillColor=#000000;strokeColor=#ff0000;" vertex="1" parent="1">
          <mxGeometry x="490" y="-1160" width="30" height="30" as="geometry" />
        </mxCell>
        <mxCell id="2Gc3yTS-ioxZ1aIdltnf-28" value="" style="rhombus;whiteSpace=wrap;html=1;fontColor=#000000;fillColor=#ffffc0;strokeColor=#ff0000;" vertex="1" parent="1">
          <mxGeometry x="300" y="-1610" width="80" height="40" as="geometry" />
        </mxCell>
        <mxCell id="2Gc3yTS-ioxZ1aIdltnf-29" value="Hủy" style="edgeStyle=orthogonalEdgeStyle;html=1;align=left;verticalAlign=bottom;endArrow=open;endSize=8;strokeColor=#ff0000;rounded=0;" edge="1" source="2Gc3yTS-ioxZ1aIdltnf-28" parent="1" target="2Gc3yTS-ioxZ1aIdltnf-25">
          <mxGeometry x="-1" relative="1" as="geometry">
            <mxPoint x="480" y="-1590" as="targetPoint" />
          </mxGeometry>
        </mxCell>
        <mxCell id="2Gc3yTS-ioxZ1aIdltnf-30" value="Đồng ý lưu" style="edgeStyle=orthogonalEdgeStyle;html=1;align=left;verticalAlign=top;endArrow=open;endSize=8;strokeColor=#ff0000;rounded=0;" edge="1" source="2Gc3yTS-ioxZ1aIdltnf-28" parent="1" target="2Gc3yTS-ioxZ1aIdltnf-31">
          <mxGeometry x="-1" relative="1" as="geometry">
            <mxPoint x="340" y="-1510" as="targetPoint" />
            <mxPoint as="offset" />
          </mxGeometry>
        </mxCell>
        <mxCell id="2Gc3yTS-ioxZ1aIdltnf-31" value="Lưu thành công" style="rounded=1;whiteSpace=wrap;html=1;arcSize=40;fontColor=#000000;fillColor=#ffffc0;strokeColor=#ff0000;" vertex="1" parent="1">
          <mxGeometry x="280" y="-1405" width="120" height="40" as="geometry" />
        </mxCell>
        <mxCell id="2Gc3yTS-ioxZ1aIdltnf-32" value="" style="edgeStyle=orthogonalEdgeStyle;html=1;verticalAlign=bottom;endArrow=open;endSize=8;strokeColor=#ff0000;rounded=0;" edge="1" source="2Gc3yTS-ioxZ1aIdltnf-31" parent="1" target="2Gc3yTS-ioxZ1aIdltnf-25">
          <mxGeometry relative="1" as="geometry">
            <mxPoint x="460" y="-1450" as="targetPoint" />
            <Array as="points">
              <mxPoint x="340" y="-1145" />
            </Array>
          </mxGeometry>
        </mxCell>
        <mxCell id="2Gc3yTS-ioxZ1aIdltnf-33" value="[Thông tin giao dịch&amp;nbsp;&lt;br&gt;không hợp lệ]" style="text;html=1;align=center;verticalAlign=middle;resizable=0;points=[];autosize=1;strokeColor=none;fillColor=none;" vertex="1" parent="1">
          <mxGeometry x="110" y="-1760" width="130" height="40" as="geometry" />
        </mxCell>
        <mxCell id="2Gc3yTS-ioxZ1aIdltnf-34" value="Tìm kiếm thông tin giao dịch" style="rounded=1;whiteSpace=wrap;html=1;arcSize=40;fontColor=#000000;fillColor=#ffffc0;strokeColor=#ff0000;" vertex="1" parent="1">
          <mxGeometry x="685" y="-1680" width="120" height="40" as="geometry" />
        </mxCell>
        <mxCell id="2Gc3yTS-ioxZ1aIdltnf-35" value="" style="edgeStyle=orthogonalEdgeStyle;html=1;verticalAlign=bottom;endArrow=open;endSize=8;strokeColor=#ff0000;rounded=0;" edge="1" source="2Gc3yTS-ioxZ1aIdltnf-34" parent="1" target="2Gc3yTS-ioxZ1aIdltnf-36">
          <mxGeometry relative="1" as="geometry">
            <mxPoint x="745" y="-1580" as="targetPoint" />
          </mxGeometry>
        </mxCell>
        <mxCell id="2Gc3yTS-ioxZ1aIdltnf-36" value="" style="rhombus;whiteSpace=wrap;html=1;fontColor=#000000;fillColor=#ffffc0;strokeColor=#ff0000;" vertex="1" parent="1">
          <mxGeometry x="705" y="-1590" width="80" height="40" as="geometry" />
        </mxCell>
        <mxCell id="2Gc3yTS-ioxZ1aIdltnf-37" value="K tìm thấy" style="edgeStyle=orthogonalEdgeStyle;html=1;align=left;verticalAlign=bottom;endArrow=open;endSize=8;strokeColor=#ff0000;rounded=0;" edge="1" source="2Gc3yTS-ioxZ1aIdltnf-36" parent="1" target="2Gc3yTS-ioxZ1aIdltnf-25">
          <mxGeometry x="-0.4795" relative="1" as="geometry">
            <mxPoint x="880" y="-1560" as="targetPoint" />
            <Array as="points">
              <mxPoint x="1280" y="-1570" />
              <mxPoint x="1280" y="-1150" />
            </Array>
            <mxPoint as="offset" />
          </mxGeometry>
        </mxCell>
        <mxCell id="2Gc3yTS-ioxZ1aIdltnf-38" value="Tìm thấy" style="edgeStyle=orthogonalEdgeStyle;html=1;align=left;verticalAlign=top;endArrow=open;endSize=8;strokeColor=#ff0000;rounded=0;" edge="1" source="2Gc3yTS-ioxZ1aIdltnf-36" parent="1" target="2Gc3yTS-ioxZ1aIdltnf-42">
          <mxGeometry x="-1" relative="1" as="geometry">
            <mxPoint x="745" y="-1490" as="targetPoint" />
            <mxPoint x="745" y="-1520" as="sourcePoint" />
          </mxGeometry>
        </mxCell>
        <mxCell id="2Gc3yTS-ioxZ1aIdltnf-42" value="" style="shape=line;html=1;strokeWidth=6;strokeColor=#ff0000;" vertex="1" parent="1">
          <mxGeometry x="645" y="-1495" width="200" height="10" as="geometry" />
        </mxCell>
        <mxCell id="2Gc3yTS-ioxZ1aIdltnf-43" value="" style="edgeStyle=orthogonalEdgeStyle;html=1;verticalAlign=bottom;endArrow=open;endSize=8;strokeColor=#ff0000;rounded=0;" edge="1" source="2Gc3yTS-ioxZ1aIdltnf-42" parent="1" target="2Gc3yTS-ioxZ1aIdltnf-44">
          <mxGeometry relative="1" as="geometry">
            <mxPoint x="745" y="-1390" as="targetPoint" />
          </mxGeometry>
        </mxCell>
        <mxCell id="2Gc3yTS-ioxZ1aIdltnf-44" value="Sửa thông tin giao dịch" style="rounded=1;whiteSpace=wrap;html=1;arcSize=40;fontColor=#000000;fillColor=#ffffc0;strokeColor=#ff0000;" vertex="1" parent="1">
          <mxGeometry x="585" y="-1405" width="120" height="40" as="geometry" />
        </mxCell>
        <mxCell id="2Gc3yTS-ioxZ1aIdltnf-45" value="" style="edgeStyle=orthogonalEdgeStyle;html=1;verticalAlign=bottom;endArrow=open;endSize=8;strokeColor=#ff0000;rounded=0;" edge="1" source="2Gc3yTS-ioxZ1aIdltnf-44" parent="1" target="2Gc3yTS-ioxZ1aIdltnf-22">
          <mxGeometry relative="1" as="geometry">
            <mxPoint x="690" y="-1250" as="targetPoint" />
            <Array as="points">
              <mxPoint x="560" y="-1385" />
              <mxPoint x="560" y="-1680" />
            </Array>
          </mxGeometry>
        </mxCell>
        <mxCell id="2Gc3yTS-ioxZ1aIdltnf-46" value="Hiển thị thông tin giao dịch" style="rounded=1;whiteSpace=wrap;html=1;arcSize=40;fontColor=#000000;fillColor=#ffffc0;strokeColor=#ff0000;" vertex="1" parent="1">
          <mxGeometry x="755" y="-1405" width="120" height="40" as="geometry" />
        </mxCell>
        <mxCell id="2Gc3yTS-ioxZ1aIdltnf-47" value="" style="edgeStyle=orthogonalEdgeStyle;html=1;verticalAlign=bottom;endArrow=open;endSize=8;strokeColor=#ff0000;rounded=0;" edge="1" source="2Gc3yTS-ioxZ1aIdltnf-46" parent="1" target="2Gc3yTS-ioxZ1aIdltnf-25">
          <mxGeometry relative="1" as="geometry">
            <mxPoint x="815" y="-1300" as="targetPoint" />
            <Array as="points">
              <mxPoint x="815" y="-1150" />
            </Array>
          </mxGeometry>
        </mxCell>
        <mxCell id="2Gc3yTS-ioxZ1aIdltnf-48" value="" style="edgeStyle=orthogonalEdgeStyle;html=1;verticalAlign=bottom;endArrow=open;endSize=8;strokeColor=#ff0000;rounded=0;" edge="1" parent="1" source="2Gc3yTS-ioxZ1aIdltnf-42" target="2Gc3yTS-ioxZ1aIdltnf-46">
          <mxGeometry relative="1" as="geometry">
            <mxPoint x="655" y="-1395" as="targetPoint" />
            <mxPoint x="750" y="-1480" as="sourcePoint" />
          </mxGeometry>
        </mxCell>
        <mxCell id="2Gc3yTS-ioxZ1aIdltnf-49" value="Xóa giao dịch" style="rounded=1;whiteSpace=wrap;html=1;arcSize=40;fontColor=#000000;fillColor=#ffffc0;strokeColor=#ff0000;" vertex="1" parent="1">
          <mxGeometry x="1080" y="-1405" width="120" height="40" as="geometry" />
        </mxCell>
        <mxCell id="2Gc3yTS-ioxZ1aIdltnf-50" value="" style="edgeStyle=orthogonalEdgeStyle;html=1;verticalAlign=bottom;endArrow=open;endSize=8;strokeColor=#ff0000;rounded=0;" edge="1" source="2Gc3yTS-ioxZ1aIdltnf-49" parent="1" target="2Gc3yTS-ioxZ1aIdltnf-55">
          <mxGeometry relative="1" as="geometry">
            <mxPoint x="1010" y="-1320" as="targetPoint" />
          </mxGeometry>
        </mxCell>
        <mxCell id="2Gc3yTS-ioxZ1aIdltnf-51" value="" style="edgeStyle=orthogonalEdgeStyle;html=1;verticalAlign=bottom;endArrow=open;endSize=8;strokeColor=#ff0000;rounded=0;" edge="1" parent="1" source="2Gc3yTS-ioxZ1aIdltnf-42" target="2Gc3yTS-ioxZ1aIdltnf-49">
          <mxGeometry relative="1" as="geometry">
            <mxPoint x="825" y="-1395" as="targetPoint" />
            <mxPoint x="755" y="-1475" as="sourcePoint" />
          </mxGeometry>
        </mxCell>
        <mxCell id="2Gc3yTS-ioxZ1aIdltnf-55" value="" style="rhombus;whiteSpace=wrap;html=1;fontColor=#000000;fillColor=#ffffc0;strokeColor=#ff0000;" vertex="1" parent="1">
          <mxGeometry x="1100" y="-1330" width="80" height="40" as="geometry" />
        </mxCell>
        <mxCell id="2Gc3yTS-ioxZ1aIdltnf-56" value="Hủy" style="edgeStyle=orthogonalEdgeStyle;html=1;align=left;verticalAlign=bottom;endArrow=open;endSize=8;strokeColor=#ff0000;rounded=0;" edge="1" source="2Gc3yTS-ioxZ1aIdltnf-55" parent="1" target="2Gc3yTS-ioxZ1aIdltnf-25">
          <mxGeometry x="-0.816" relative="1" as="geometry">
            <mxPoint x="1180" y="-1210" as="targetPoint" />
            <Array as="points">
              <mxPoint x="1140" y="-1150" />
            </Array>
            <mxPoint as="offset" />
          </mxGeometry>
        </mxCell>
        <mxCell id="2Gc3yTS-ioxZ1aIdltnf-57" value="Xác nhận xóa" style="edgeStyle=orthogonalEdgeStyle;html=1;align=left;verticalAlign=top;endArrow=open;endSize=8;strokeColor=#ff0000;rounded=0;" edge="1" source="2Gc3yTS-ioxZ1aIdltnf-55" parent="1" target="2Gc3yTS-ioxZ1aIdltnf-58">
          <mxGeometry x="0.5556" relative="1" as="geometry">
            <mxPoint x="1010" y="-1310" as="targetPoint" />
            <mxPoint as="offset" />
          </mxGeometry>
        </mxCell>
        <mxCell id="2Gc3yTS-ioxZ1aIdltnf-58" value="Xóa thành công" style="rounded=1;whiteSpace=wrap;html=1;arcSize=40;fontColor=#000000;fillColor=#ffffc0;strokeColor=#ff0000;" vertex="1" parent="1">
          <mxGeometry x="890" y="-1330" width="120" height="40" as="geometry" />
        </mxCell>
        <mxCell id="2Gc3yTS-ioxZ1aIdltnf-59" value="" style="edgeStyle=orthogonalEdgeStyle;html=1;verticalAlign=bottom;endArrow=open;endSize=8;strokeColor=#ff0000;rounded=0;" edge="1" source="2Gc3yTS-ioxZ1aIdltnf-58" parent="1" target="2Gc3yTS-ioxZ1aIdltnf-25">
          <mxGeometry relative="1" as="geometry">
            <mxPoint x="830" y="-1220" as="targetPoint" />
            <Array as="points">
              <mxPoint x="950" y="-1150" />
            </Array>
          </mxGeometry>
        </mxCell>
        <mxCell id="2Gc3yTS-ioxZ1aIdltnf-60" value="Hiển thị tất cả giao dịch" style="rounded=1;whiteSpace=wrap;html=1;arcSize=40;fontColor=#000000;fillColor=#ffffc0;strokeColor=#ff0000;" vertex="1" parent="1">
          <mxGeometry x="1340" y="-1960" width="120" height="40" as="geometry" />
        </mxCell>
        <mxCell id="2Gc3yTS-ioxZ1aIdltnf-61" value="" style="edgeStyle=orthogonalEdgeStyle;html=1;verticalAlign=bottom;endArrow=open;endSize=8;strokeColor=#ff0000;rounded=0;" edge="1" source="2Gc3yTS-ioxZ1aIdltnf-60" parent="1" target="2Gc3yTS-ioxZ1aIdltnf-66">
          <mxGeometry relative="1" as="geometry">
            <mxPoint x="1400" y="-1860" as="targetPoint" />
          </mxGeometry>
        </mxCell>
        <mxCell id="2Gc3yTS-ioxZ1aIdltnf-62" value="" style="edgeStyle=orthogonalEdgeStyle;html=1;verticalAlign=bottom;endArrow=open;endSize=8;strokeColor=#ff0000;rounded=0;" edge="1" parent="1" source="2Gc3yTS-ioxZ1aIdltnf-5" target="2Gc3yTS-ioxZ1aIdltnf-60">
          <mxGeometry relative="1" as="geometry">
            <mxPoint x="945" y="-1940" as="targetPoint" />
            <mxPoint x="665" y="-2025" as="sourcePoint" />
          </mxGeometry>
        </mxCell>
        <mxCell id="2Gc3yTS-ioxZ1aIdltnf-66" value="Tìm kiếm giao dịch" style="rounded=1;whiteSpace=wrap;html=1;arcSize=40;fontColor=#000000;fillColor=#ffffc0;strokeColor=#ff0000;" vertex="1" parent="1">
          <mxGeometry x="1340" y="-1850" width="120" height="40" as="geometry" />
        </mxCell>
        <mxCell id="2Gc3yTS-ioxZ1aIdltnf-67" value="" style="edgeStyle=orthogonalEdgeStyle;html=1;verticalAlign=bottom;endArrow=open;endSize=8;strokeColor=#ff0000;rounded=0;" edge="1" source="2Gc3yTS-ioxZ1aIdltnf-66" parent="1" target="2Gc3yTS-ioxZ1aIdltnf-68">
          <mxGeometry relative="1" as="geometry">
            <mxPoint x="1400" y="-1750" as="targetPoint" />
          </mxGeometry>
        </mxCell>
        <mxCell id="2Gc3yTS-ioxZ1aIdltnf-68" value="" style="rhombus;whiteSpace=wrap;html=1;fontColor=#000000;fillColor=#ffffc0;strokeColor=#ff0000;" vertex="1" parent="1">
          <mxGeometry x="1360" y="-1750" width="80" height="40" as="geometry" />
        </mxCell>
        <mxCell id="2Gc3yTS-ioxZ1aIdltnf-69" value="K tìm thấy giao dịch" style="edgeStyle=orthogonalEdgeStyle;html=1;align=left;verticalAlign=bottom;endArrow=open;endSize=8;strokeColor=#ff0000;rounded=0;" edge="1" source="2Gc3yTS-ioxZ1aIdltnf-68" parent="1" target="2Gc3yTS-ioxZ1aIdltnf-73">
          <mxGeometry x="-1" relative="1" as="geometry">
            <mxPoint x="1590" y="-1730" as="targetPoint" />
            <mxPoint as="offset" />
          </mxGeometry>
        </mxCell>
        <mxCell id="2Gc3yTS-ioxZ1aIdltnf-70" value="Tìm thấy" style="edgeStyle=orthogonalEdgeStyle;html=1;align=left;verticalAlign=top;endArrow=open;endSize=8;strokeColor=#ff0000;rounded=0;" edge="1" source="2Gc3yTS-ioxZ1aIdltnf-68" parent="1" target="2Gc3yTS-ioxZ1aIdltnf-71">
          <mxGeometry x="-1" relative="1" as="geometry">
            <mxPoint x="1400" y="-1640" as="targetPoint" />
          </mxGeometry>
        </mxCell>
        <mxCell id="2Gc3yTS-ioxZ1aIdltnf-71" value="Hiển thị danh sách giao dịch" style="rounded=1;whiteSpace=wrap;html=1;arcSize=40;fontColor=#000000;fillColor=#ffffc0;strokeColor=#ff0000;" vertex="1" parent="1">
          <mxGeometry x="1340" y="-1630" width="120" height="40" as="geometry" />
        </mxCell>
        <mxCell id="2Gc3yTS-ioxZ1aIdltnf-72" value="" style="edgeStyle=orthogonalEdgeStyle;html=1;verticalAlign=bottom;endArrow=open;endSize=8;strokeColor=#ff0000;rounded=0;" edge="1" source="2Gc3yTS-ioxZ1aIdltnf-71" parent="1" target="2Gc3yTS-ioxZ1aIdltnf-25">
          <mxGeometry relative="1" as="geometry">
            <mxPoint x="558.8888888888889" y="-1200" as="targetPoint" />
            <Array as="points">
              <mxPoint x="1400" y="-1150" />
            </Array>
          </mxGeometry>
        </mxCell>
        <mxCell id="2Gc3yTS-ioxZ1aIdltnf-73" value="Chưa có giao dịch" style="rounded=1;whiteSpace=wrap;html=1;arcSize=40;fontColor=#000000;fillColor=#ffffc0;strokeColor=#ff0000;" vertex="1" parent="1">
          <mxGeometry x="1530" y="-1630" width="120" height="40" as="geometry" />
        </mxCell>
        <mxCell id="2Gc3yTS-ioxZ1aIdltnf-76" value="" style="edgeStyle=orthogonalEdgeStyle;html=1;verticalAlign=bottom;endArrow=open;endSize=8;strokeColor=#ff0000;rounded=0;" edge="1" source="2Gc3yTS-ioxZ1aIdltnf-73" parent="1" target="2Gc3yTS-ioxZ1aIdltnf-25">
          <mxGeometry relative="1" as="geometry">
            <mxPoint x="590" y="-1210" as="targetPoint" />
            <mxPoint x="1670" y="-1710" as="sourcePoint" />
            <Array as="points">
              <mxPoint x="1590" y="-1150" />
            </Array>
          </mxGeometry>
        </mxCell>
      </root>
    </mxGraphModel>
  </diagram>
</mxfile>
